<mxfile host="app.diagrams.net" modified="2022-03-17T13:45:56.356Z" agent="5.0 (Windows NT 10.0; Win64; x64) AppleWebKit/537.36 (KHTML, like Gecko) Chrome/99.0.4844.74 Safari/537.36" etag="NY2FKLzDn_qn1YR0Xvea" version="17.1.3" type="github">
  <diagram id="C5RBs43oDa-KdzZeNtuy" name="Page-1">
    <mxGraphModel dx="723" dy="1676" grid="1" gridSize="10" guides="1" tooltips="1" connect="1" arrows="1" fold="1" page="1" pageScale="1" pageWidth="827" pageHeight="1169" math="0" shadow="0">
      <root>
        <mxCell id="WIyWlLk6GJQsqaUBKTNV-0" />
        <mxCell id="WIyWlLk6GJQsqaUBKTNV-1" parent="WIyWlLk6GJQsqaUBKTNV-0" />
        <mxCell id="LyEFTZ9ZSgDpZpry8IH9-31" value="" style="edgeStyle=orthogonalEdgeStyle;rounded=0;orthogonalLoop=1;jettySize=auto;html=1;" edge="1" parent="WIyWlLk6GJQsqaUBKTNV-1" source="LyEFTZ9ZSgDpZpry8IH9-2" target="LyEFTZ9ZSgDpZpry8IH9-14">
          <mxGeometry relative="1" as="geometry">
            <Array as="points">
              <mxPoint x="400" y="80" />
              <mxPoint x="410" y="80" />
            </Array>
          </mxGeometry>
        </mxCell>
        <mxCell id="LyEFTZ9ZSgDpZpry8IH9-2" value="X,Y" style="shape=parallelogram;perimeter=parallelogramPerimeter;whiteSpace=wrap;html=1;fixedSize=1;" vertex="1" parent="WIyWlLk6GJQsqaUBKTNV-1">
          <mxGeometry x="340" y="-30" width="120" height="60" as="geometry" />
        </mxCell>
        <mxCell id="LyEFTZ9ZSgDpZpry8IH9-12" value="" style="edgeStyle=orthogonalEdgeStyle;rounded=0;orthogonalLoop=1;jettySize=auto;html=1;" edge="1" parent="WIyWlLk6GJQsqaUBKTNV-1" source="LyEFTZ9ZSgDpZpry8IH9-3" target="LyEFTZ9ZSgDpZpry8IH9-2">
          <mxGeometry relative="1" as="geometry" />
        </mxCell>
        <mxCell id="LyEFTZ9ZSgDpZpry8IH9-3" value="INICIO" style="rounded=1;whiteSpace=wrap;html=1;" vertex="1" parent="WIyWlLk6GJQsqaUBKTNV-1">
          <mxGeometry x="340" y="-150" width="120" height="60" as="geometry" />
        </mxCell>
        <mxCell id="LyEFTZ9ZSgDpZpry8IH9-32" style="edgeStyle=orthogonalEdgeStyle;rounded=0;orthogonalLoop=1;jettySize=auto;html=1;entryX=0.5;entryY=0;entryDx=0;entryDy=0;" edge="1" parent="WIyWlLk6GJQsqaUBKTNV-1" source="LyEFTZ9ZSgDpZpry8IH9-14" target="LyEFTZ9ZSgDpZpry8IH9-34">
          <mxGeometry relative="1" as="geometry">
            <mxPoint x="310" y="270" as="targetPoint" />
          </mxGeometry>
        </mxCell>
        <mxCell id="LyEFTZ9ZSgDpZpry8IH9-33" style="edgeStyle=orthogonalEdgeStyle;rounded=0;orthogonalLoop=1;jettySize=auto;html=1;entryX=0.5;entryY=0;entryDx=0;entryDy=0;" edge="1" parent="WIyWlLk6GJQsqaUBKTNV-1" source="LyEFTZ9ZSgDpZpry8IH9-14" target="LyEFTZ9ZSgDpZpry8IH9-35">
          <mxGeometry relative="1" as="geometry">
            <mxPoint x="525" y="280" as="targetPoint" />
          </mxGeometry>
        </mxCell>
        <mxCell id="LyEFTZ9ZSgDpZpry8IH9-14" value="X&amp;gt;Y" style="strokeWidth=2;html=1;shape=mxgraph.flowchart.decision;whiteSpace=wrap;direction=south;" vertex="1" parent="WIyWlLk6GJQsqaUBKTNV-1">
          <mxGeometry x="360" y="130" width="100" height="100" as="geometry" />
        </mxCell>
        <mxCell id="LyEFTZ9ZSgDpZpry8IH9-18" value="FALSO" style="text;html=1;align=center;verticalAlign=middle;resizable=0;points=[];autosize=1;strokeColor=none;fillColor=none;" vertex="1" parent="WIyWlLk6GJQsqaUBKTNV-1">
          <mxGeometry x="300" y="150" width="50" height="20" as="geometry" />
        </mxCell>
        <mxCell id="LyEFTZ9ZSgDpZpry8IH9-19" value="VEDADEIRO" style="text;html=1;align=center;verticalAlign=middle;resizable=0;points=[];autosize=1;strokeColor=none;fillColor=none;" vertex="1" parent="WIyWlLk6GJQsqaUBKTNV-1">
          <mxGeometry x="470" y="150" width="90" height="20" as="geometry" />
        </mxCell>
        <mxCell id="LyEFTZ9ZSgDpZpry8IH9-38" style="edgeStyle=orthogonalEdgeStyle;rounded=0;orthogonalLoop=1;jettySize=auto;html=1;exitX=0.5;exitY=1;exitDx=0;exitDy=0;entryX=0.5;entryY=0;entryDx=0;entryDy=0;" edge="1" parent="WIyWlLk6GJQsqaUBKTNV-1" source="LyEFTZ9ZSgDpZpry8IH9-34" target="LyEFTZ9ZSgDpZpry8IH9-37">
          <mxGeometry relative="1" as="geometry" />
        </mxCell>
        <mxCell id="LyEFTZ9ZSgDpZpry8IH9-34" value="X&amp;lt;Y" style="rounded=0;whiteSpace=wrap;html=1;" vertex="1" parent="WIyWlLk6GJQsqaUBKTNV-1">
          <mxGeometry x="210" y="250" width="120" height="60" as="geometry" />
        </mxCell>
        <mxCell id="LyEFTZ9ZSgDpZpry8IH9-39" style="edgeStyle=orthogonalEdgeStyle;rounded=0;orthogonalLoop=1;jettySize=auto;html=1;exitX=0.5;exitY=1;exitDx=0;exitDy=0;entryX=0.5;entryY=0;entryDx=0;entryDy=0;" edge="1" parent="WIyWlLk6GJQsqaUBKTNV-1" source="LyEFTZ9ZSgDpZpry8IH9-35" target="LyEFTZ9ZSgDpZpry8IH9-36">
          <mxGeometry relative="1" as="geometry" />
        </mxCell>
        <mxCell id="LyEFTZ9ZSgDpZpry8IH9-35" value="X&amp;gt;Y" style="rounded=0;whiteSpace=wrap;html=1;" vertex="1" parent="WIyWlLk6GJQsqaUBKTNV-1">
          <mxGeometry x="510" y="250" width="120" height="60" as="geometry" />
        </mxCell>
        <mxCell id="LyEFTZ9ZSgDpZpry8IH9-42" style="edgeStyle=orthogonalEdgeStyle;rounded=0;orthogonalLoop=1;jettySize=auto;html=1;exitX=0;exitY=0.75;exitDx=0;exitDy=0;" edge="1" parent="WIyWlLk6GJQsqaUBKTNV-1" source="LyEFTZ9ZSgDpZpry8IH9-36" target="LyEFTZ9ZSgDpZpry8IH9-40">
          <mxGeometry relative="1" as="geometry">
            <mxPoint x="410" y="470" as="targetPoint" />
            <Array as="points">
              <mxPoint x="410" y="420" />
            </Array>
          </mxGeometry>
        </mxCell>
        <mxCell id="LyEFTZ9ZSgDpZpry8IH9-36" value="X" style="shape=document;whiteSpace=wrap;html=1;boundedLbl=1;" vertex="1" parent="WIyWlLk6GJQsqaUBKTNV-1">
          <mxGeometry x="510" y="360" width="120" height="80" as="geometry" />
        </mxCell>
        <mxCell id="LyEFTZ9ZSgDpZpry8IH9-41" style="edgeStyle=orthogonalEdgeStyle;rounded=0;orthogonalLoop=1;jettySize=auto;html=1;exitX=1;exitY=0.75;exitDx=0;exitDy=0;entryX=0.5;entryY=0;entryDx=0;entryDy=0;" edge="1" parent="WIyWlLk6GJQsqaUBKTNV-1" source="LyEFTZ9ZSgDpZpry8IH9-37" target="LyEFTZ9ZSgDpZpry8IH9-40">
          <mxGeometry relative="1" as="geometry" />
        </mxCell>
        <mxCell id="LyEFTZ9ZSgDpZpry8IH9-37" value="Y" style="shape=document;whiteSpace=wrap;html=1;boundedLbl=1;" vertex="1" parent="WIyWlLk6GJQsqaUBKTNV-1">
          <mxGeometry x="210" y="360" width="120" height="80" as="geometry" />
        </mxCell>
        <mxCell id="LyEFTZ9ZSgDpZpry8IH9-40" value="FIM" style="rounded=1;whiteSpace=wrap;html=1;" vertex="1" parent="WIyWlLk6GJQsqaUBKTNV-1">
          <mxGeometry x="340" y="525" width="120" height="60" as="geometry" />
        </mxCell>
      </root>
    </mxGraphModel>
  </diagram>
</mxfile>
